<!DOCTYPE svg PUBLIC "-//W3C//DTD SVG 1.1//EN" "http://www.w3.org/Graphics/SVG/1.1/DTD/svg11.dtd">
<!-- Uploaded to: SVG Repo, www.svgrepo.com, Transformed by: SVG Repo Mixer Tools -->
<svg width="800px" height="800px" viewBox="0 0 100 100" xmlns="http://www.w3.org/2000/svg" version="1.1" fill="#000000">
<g id="SVGRepo_bgCarrier" stroke-width="0"/>
<g id="SVGRepo_tracerCarrier" stroke-linecap="round" stroke-linejoin="round"/>
<g id="SVGRepo_iconCarrier"> <path style="fill:#CCCCCC;stroke:#222222;stroke-width:2" d="M 4,88 C 4,87 3.6,25 3.6,25 3.6,25 3,20 8,20 c -1,0 6,0 6,0 l 0,-6 c 0,0 0,-3 3,-3 l 17,0 c 0,0 3,0 3,3 l 0,6 43,0 c 0,0 4,0 4,4 l -2,64 z"/> <path style="fill:#EDEDED;stroke:#222222;stroke-width:2;fill-opacity:0.8" d="M 4,88 15,40 c 0,0 0,-7 8,-7 10,0 66,0 66,0 0,0 9,-1 7,6 -2,7 -12,49 -12,49 z"/> </g>
</svg>