<?xml version="1.0" encoding="UTF-8" standalone="no"?><!DOCTYPE svg PUBLIC "-//W3C//DTD SVG 1.1//EN" "http://www.w3.org/Graphics/SVG/1.1/DTD/svg11.dtd"><svg width="100%" height="100%" viewBox="0 0 2134 2134" version="1.1" xmlns="http://www.w3.org/2000/svg" xmlns:xlink="http://www.w3.org/1999/xlink" xml:space="preserve" xmlns:serif="http://www.serif.com/" style="fill-rule:evenodd;clip-rule:evenodd;stroke-linecap:round;stroke-linejoin:round;stroke-miterlimit:2;"><g id="Remark"><circle id="Yellow-Circle" serif:id="Yellow Circle" cx="1066.67" cy="1066.67" r="1041.67" style="fill:#ffc60a;"/><path id="Remark1" serif:id="Remark" d="M1691.67,728.125c-0,-100.61 -81.682,-182.292 -182.292,-182.292l-885.417,0c-100.609,0 -182.291,81.682 -182.291,182.292l-0,364.583c-0,100.61 81.682,182.292 182.291,182.292l223.959,-0l-156.25,312.5l343.75,-312.5l473.958,-0c100.61,-0 182.292,-81.682 182.292,-182.292l-0,-364.583Z" style="fill:none;stroke:#000;stroke-width:16.67px;"/><path d="M1691.67,728.125c-0,-100.61 -81.682,-182.292 -182.292,-182.292l-885.417,0c-100.609,0 -182.291,81.682 -182.291,182.292l-0,364.583c-0,100.61 81.682,182.292 182.291,182.292l223.959,-0l-156.25,312.5l343.75,-312.5l473.958,-0c100.61,-0 182.292,-81.682 182.292,-182.292l-0,-364.583Z" style="fill:#333;"/></g></svg>