<?xml version="1.0" encoding="UTF-8" standalone="no"?>
<!DOCTYPE svg PUBLIC "-//W3C//DTD SVG 1.1//EN" "http://www.w3.org/Graphics/SVG/1.1/DTD/svg11.dtd">
<svg width="100%" height="100%" viewBox="0 0 2134 2134" version="1.1" xmlns="http://www.w3.org/2000/svg" xmlns:xlink="http://www.w3.org/1999/xlink" xml:space="preserve" xmlns:serif="http://www.serif.com/" style="fill-rule:evenodd;clip-rule:evenodd;stroke-linejoin:round;stroke-miterlimit:2;">
    <circle id="Red-Circle" serif:id="Red Circle" cx="1066.67" cy="1066.67" r="1041.67" style="fill:#30b000;"/>
    <path d="M1640.34,508.471c-23.935,-20.084 -59.673,-16.958 -79.757,6.978l-800.573,954.086c-20.084,23.935 -16.958,59.673 6.977,79.757l86.736,72.779c23.935,20.084 59.673,16.958 79.757,-6.977l800.573,-954.087c20.084,-23.935 16.957,-59.673 -6.978,-79.757l-86.735,-72.779Z" style="fill:#fff;"/>
    <path d="M551.818,1087.5c-23.935,-20.084 -59.673,-16.957 -79.757,6.978l-72.78,86.735c-20.084,23.936 -16.957,59.674 6.978,79.758l433.676,363.897c23.935,20.084 59.673,16.957 79.757,-6.978l72.779,-86.735c20.084,-23.936 16.958,-59.674 -6.978,-79.758l-433.675,-363.897Z" style="fill:#fff;"/>
</svg>