<?xml version="1.0" encoding="UTF-8" standalone="no"?>
<!DOCTYPE svg PUBLIC "-//W3C//DTD SVG 1.1//EN" "http://www.w3.org/Graphics/SVG/1.1/DTD/svg11.dtd">
<svg width="100%" height="100%" viewBox="0 0 2134 2134" version="1.1" xmlns="http://www.w3.org/2000/svg" xmlns:xlink="http://www.w3.org/1999/xlink" xml:space="preserve" xmlns:serif="http://www.serif.com/" style="fill-rule:evenodd;clip-rule:evenodd;stroke-linejoin:round;stroke-miterlimit:2;">
    <circle id="Red-Circle" serif:id="Red Circle" cx="1066.67" cy="1066.67" r="1041.67" style="fill:#b11;"/>
    <path id="White-Banner" serif:id="White Banner" d="M1587.07,434.178c-30.931,-30.932 -81.155,-30.932 -112.087,-0l-1040.8,1040.8c-30.932,30.932 -30.932,81.156 -0,112.087l112.086,112.087c30.931,30.931 81.156,30.931 112.087,-0l1040.81,-1040.81c30.931,-30.931 30.931,-81.156 -0,-112.087l-112.087,-112.086Z" style="fill:#fff;"/>
    <path id="White-Banner1" serif:id="White Banner" d="M1699.16,1587.07c30.931,-30.931 30.931,-81.155 -0,-112.087l-1040.81,-1040.8c-30.931,-30.932 -81.156,-30.932 -112.087,-0l-112.086,112.086c-30.932,30.931 -30.932,81.156 -0,112.087l1040.8,1040.81c30.932,30.931 81.156,30.931 112.087,-0l112.087,-112.087Z" style="fill:#fff;"/>
</svg>